<mxfile host="app.diagrams.net" agent="Mozilla/5.0 (Windows NT 10.0; Win64; x64) AppleWebKit/537.36 (KHTML, like Gecko) Chrome/135.0.0.0 Safari/537.36" version="26.2.13">
  <diagram id="C5RBs43oDa-KdzZeNtuy" name="Page-1">
    <mxGraphModel dx="1878" dy="1725" grid="1" gridSize="10" guides="1" tooltips="1" connect="1" arrows="1" fold="1" page="1" pageScale="1" pageWidth="827" pageHeight="1169" math="0" shadow="0">
      <root>
        <mxCell id="WIyWlLk6GJQsqaUBKTNV-0" />
        <mxCell id="WIyWlLk6GJQsqaUBKTNV-1" parent="WIyWlLk6GJQsqaUBKTNV-0" />
        <mxCell id="bbEcF8RNUJCvAYnIecTd-0" value="Usuario" style="swimlane;fontStyle=2;align=center;verticalAlign=top;childLayout=stackLayout;horizontal=1;startSize=26;horizontalStack=0;resizeParent=1;resizeLast=0;collapsible=1;marginBottom=0;rounded=0;shadow=0;strokeWidth=1;" vertex="1" parent="WIyWlLk6GJQsqaUBKTNV-1">
          <mxGeometry x="-140" y="-290" width="540" height="476" as="geometry">
            <mxRectangle x="230" y="140" width="160" height="26" as="alternateBounds" />
          </mxGeometry>
        </mxCell>
        <mxCell id="bbEcF8RNUJCvAYnIecTd-1" value="- ID: int" style="text;align=left;verticalAlign=top;spacingLeft=4;spacingRight=4;overflow=hidden;rotatable=0;points=[[0,0.5],[1,0.5]];portConstraint=eastwest;" vertex="1" parent="bbEcF8RNUJCvAYnIecTd-0">
          <mxGeometry y="26" width="540" height="26" as="geometry" />
        </mxCell>
        <mxCell id="bbEcF8RNUJCvAYnIecTd-2" value="- Nome: String" style="text;align=left;verticalAlign=top;spacingLeft=4;spacingRight=4;overflow=hidden;rotatable=0;points=[[0,0.5],[1,0.5]];portConstraint=eastwest;" vertex="1" parent="bbEcF8RNUJCvAYnIecTd-0">
          <mxGeometry y="52" width="540" height="26" as="geometry" />
        </mxCell>
        <mxCell id="bbEcF8RNUJCvAYnIecTd-3" value="- Telefone: int" style="text;align=left;verticalAlign=top;spacingLeft=4;spacingRight=4;overflow=hidden;rotatable=0;points=[[0,0.5],[1,0.5]];portConstraint=eastwest;rounded=0;shadow=0;html=0;" vertex="1" parent="bbEcF8RNUJCvAYnIecTd-0">
          <mxGeometry y="78" width="540" height="26" as="geometry" />
        </mxCell>
        <mxCell id="bbEcF8RNUJCvAYnIecTd-4" value="- Email: String" style="text;align=left;verticalAlign=top;spacingLeft=4;spacingRight=4;overflow=hidden;rotatable=0;points=[[0,0.5],[1,0.5]];portConstraint=eastwest;rounded=0;shadow=0;html=0;" vertex="1" parent="bbEcF8RNUJCvAYnIecTd-0">
          <mxGeometry y="104" width="540" height="26" as="geometry" />
        </mxCell>
        <mxCell id="bbEcF8RNUJCvAYnIecTd-5" value="- Senha: int" style="text;align=left;verticalAlign=top;spacingLeft=4;spacingRight=4;overflow=hidden;rotatable=0;points=[[0,0.5],[1,0.5]];portConstraint=eastwest;" vertex="1" parent="bbEcF8RNUJCvAYnIecTd-0">
          <mxGeometry y="130" width="540" height="26" as="geometry" />
        </mxCell>
        <mxCell id="bbEcF8RNUJCvAYnIecTd-6" value="- CPF: int" style="text;align=left;verticalAlign=top;spacingLeft=4;spacingRight=4;overflow=hidden;rotatable=0;points=[[0,0.5],[1,0.5]];portConstraint=eastwest;" vertex="1" parent="bbEcF8RNUJCvAYnIecTd-0">
          <mxGeometry y="156" width="540" height="26" as="geometry" />
        </mxCell>
        <mxCell id="bbEcF8RNUJCvAYnIecTd-7" value="- Sexo: String" style="text;align=left;verticalAlign=top;spacingLeft=4;spacingRight=4;overflow=hidden;rotatable=0;points=[[0,0.5],[1,0.5]];portConstraint=eastwest;" vertex="1" parent="bbEcF8RNUJCvAYnIecTd-0">
          <mxGeometry y="182" width="540" height="26" as="geometry" />
        </mxCell>
        <mxCell id="bbEcF8RNUJCvAYnIecTd-8" value="" style="line;html=1;strokeWidth=1;align=left;verticalAlign=middle;spacingTop=-1;spacingLeft=3;spacingRight=3;rotatable=0;labelPosition=right;points=[];portConstraint=eastwest;" vertex="1" parent="bbEcF8RNUJCvAYnIecTd-0">
          <mxGeometry y="208" width="540" height="8" as="geometry" />
        </mxCell>
        <mxCell id="bbEcF8RNUJCvAYnIecTd-9" value="+ Usuario(ID: int, Nome: String, Telefone: int, Email: String, Senha: String, CPF: int, Sexo: String)" style="text;align=left;verticalAlign=top;spacingLeft=4;spacingRight=4;overflow=hidden;rotatable=0;points=[[0,0.5],[1,0.5]];portConstraint=eastwest;" vertex="1" parent="bbEcF8RNUJCvAYnIecTd-0">
          <mxGeometry y="216" width="540" height="26" as="geometry" />
        </mxCell>
        <mxCell id="bbEcF8RNUJCvAYnIecTd-10" value="+ Login(): boolean" style="text;align=left;verticalAlign=top;spacingLeft=4;spacingRight=4;overflow=hidden;rotatable=0;points=[[0,0.5],[1,0.5]];portConstraint=eastwest;" vertex="1" parent="bbEcF8RNUJCvAYnIecTd-0">
          <mxGeometry y="242" width="540" height="26" as="geometry" />
        </mxCell>
        <mxCell id="bbEcF8RNUJCvAYnIecTd-11" value="+ Cadastro(): void" style="text;align=left;verticalAlign=top;spacingLeft=4;spacingRight=4;overflow=hidden;rotatable=0;points=[[0,0.5],[1,0.5]];portConstraint=eastwest;" vertex="1" parent="bbEcF8RNUJCvAYnIecTd-0">
          <mxGeometry y="268" width="540" height="26" as="geometry" />
        </mxCell>
        <mxCell id="bbEcF8RNUJCvAYnIecTd-12" value="+ SolicitarCorrida(): Corrida" style="text;align=left;verticalAlign=top;spacingLeft=4;spacingRight=4;overflow=hidden;rotatable=0;points=[[0,0.5],[1,0.5]];portConstraint=eastwest;" vertex="1" parent="bbEcF8RNUJCvAYnIecTd-0">
          <mxGeometry y="294" width="540" height="26" as="geometry" />
        </mxCell>
        <mxCell id="bbEcF8RNUJCvAYnIecTd-13" value="+ EscolherRota(): String" style="text;align=left;verticalAlign=top;spacingLeft=4;spacingRight=4;overflow=hidden;rotatable=0;points=[[0,0.5],[1,0.5]];portConstraint=eastwest;" vertex="1" parent="bbEcF8RNUJCvAYnIecTd-0">
          <mxGeometry y="320" width="540" height="26" as="geometry" />
        </mxCell>
        <mxCell id="bbEcF8RNUJCvAYnIecTd-14" value="+ create(usuario: Usuario): void" style="text;align=left;verticalAlign=top;spacingLeft=4;spacingRight=4;overflow=hidden;rotatable=0;points=[[0,0.5],[1,0.5]];portConstraint=eastwest;" vertex="1" parent="bbEcF8RNUJCvAYnIecTd-0">
          <mxGeometry y="346" width="540" height="26" as="geometry" />
        </mxCell>
        <mxCell id="bbEcF8RNUJCvAYnIecTd-15" value="+ read(id: int): Usuario" style="text;align=left;verticalAlign=top;spacingLeft=4;spacingRight=4;overflow=hidden;rotatable=0;points=[[0,0.5],[1,0.5]];portConstraint=eastwest;" vertex="1" parent="bbEcF8RNUJCvAYnIecTd-0">
          <mxGeometry y="372" width="540" height="26" as="geometry" />
        </mxCell>
        <mxCell id="bbEcF8RNUJCvAYnIecTd-16" value="+ update(usuario: Usuario): void" style="text;align=left;verticalAlign=top;spacingLeft=4;spacingRight=4;overflow=hidden;rotatable=0;points=[[0,0.5],[1,0.5]];portConstraint=eastwest;" vertex="1" parent="bbEcF8RNUJCvAYnIecTd-0">
          <mxGeometry y="398" width="540" height="26" as="geometry" />
        </mxCell>
        <mxCell id="bbEcF8RNUJCvAYnIecTd-17" value="+ delete(id: int): void" style="text;align=left;verticalAlign=top;spacingLeft=4;spacingRight=4;overflow=hidden;rotatable=0;points=[[0,0.5],[1,0.5]];portConstraint=eastwest;" vertex="1" parent="bbEcF8RNUJCvAYnIecTd-0">
          <mxGeometry y="424" width="540" height="26" as="geometry" />
        </mxCell>
        <mxCell id="bbEcF8RNUJCvAYnIecTd-18" value="+ listAll(): List&lt;Usuario&gt;" style="text;align=left;verticalAlign=top;spacingLeft=4;spacingRight=4;overflow=hidden;rotatable=0;points=[[0,0.5],[1,0.5]];portConstraint=eastwest;" vertex="1" parent="bbEcF8RNUJCvAYnIecTd-0">
          <mxGeometry y="450" width="540" height="26" as="geometry" />
        </mxCell>
        <mxCell id="bbEcF8RNUJCvAYnIecTd-19" style="edgeStyle=orthogonalEdgeStyle;rounded=0;orthogonalLoop=1;jettySize=auto;html=1;entryX=0;entryY=0.5;entryDx=0;entryDy=0;" edge="1" parent="WIyWlLk6GJQsqaUBKTNV-1" source="bbEcF8RNUJCvAYnIecTd-20" target="bbEcF8RNUJCvAYnIecTd-12">
          <mxGeometry relative="1" as="geometry" />
        </mxCell>
        <mxCell id="bbEcF8RNUJCvAYnIecTd-20" value="Passageira" style="swimlane;fontStyle=0;align=center;verticalAlign=top;childLayout=stackLayout;horizontal=1;startSize=26;horizontalStack=0;resizeParent=1;resizeLast=0;collapsible=1;marginBottom=0;rounded=0;shadow=0;strokeWidth=1;" vertex="1" parent="WIyWlLk6GJQsqaUBKTNV-1">
          <mxGeometry x="-340" y="420" width="550" height="208" as="geometry">
            <mxRectangle x="130" y="380" width="160" height="26" as="alternateBounds" />
          </mxGeometry>
        </mxCell>
        <mxCell id="bbEcF8RNUJCvAYnIecTd-21" value="+ Passageira(ID: int, Nome: String, Telefone: int, Email: String, Senha: String, CPF: int, Sexo: String)" style="text;align=left;verticalAlign=top;spacingLeft=4;spacingRight=4;overflow=hidden;rotatable=0;points=[[0,0.5],[1,0.5]];portConstraint=eastwest;" vertex="1" parent="bbEcF8RNUJCvAYnIecTd-20">
          <mxGeometry y="26" width="550" height="26" as="geometry" />
        </mxCell>
        <mxCell id="bbEcF8RNUJCvAYnIecTd-22" value="+ PreferenciaMotoristaMulher: boolean" style="text;align=left;verticalAlign=top;spacingLeft=4;spacingRight=4;overflow=hidden;rotatable=0;points=[[0,0.5],[1,0.5]];portConstraint=eastwest;" vertex="1" parent="bbEcF8RNUJCvAYnIecTd-20">
          <mxGeometry y="52" width="550" height="26" as="geometry" />
        </mxCell>
        <mxCell id="bbEcF8RNUJCvAYnIecTd-23" value="+ create(passageira: Passageira): void" style="text;align=left;verticalAlign=top;spacingLeft=4;spacingRight=4;overflow=hidden;rotatable=0;points=[[0,0.5],[1,0.5]];portConstraint=eastwest;" vertex="1" parent="bbEcF8RNUJCvAYnIecTd-20">
          <mxGeometry y="78" width="550" height="26" as="geometry" />
        </mxCell>
        <mxCell id="bbEcF8RNUJCvAYnIecTd-24" value="+ read(id: int): Passageira" style="text;align=left;verticalAlign=top;spacingLeft=4;spacingRight=4;overflow=hidden;rotatable=0;points=[[0,0.5],[1,0.5]];portConstraint=eastwest;" vertex="1" parent="bbEcF8RNUJCvAYnIecTd-20">
          <mxGeometry y="104" width="550" height="26" as="geometry" />
        </mxCell>
        <mxCell id="bbEcF8RNUJCvAYnIecTd-25" value="+ update(passageira: Passageira): void" style="text;align=left;verticalAlign=top;spacingLeft=4;spacingRight=4;overflow=hidden;rotatable=0;points=[[0,0.5],[1,0.5]];portConstraint=eastwest;" vertex="1" parent="bbEcF8RNUJCvAYnIecTd-20">
          <mxGeometry y="130" width="550" height="26" as="geometry" />
        </mxCell>
        <mxCell id="bbEcF8RNUJCvAYnIecTd-26" value="+ delete(id: int): void" style="text;align=left;verticalAlign=top;spacingLeft=4;spacingRight=4;overflow=hidden;rotatable=0;points=[[0,0.5],[1,0.5]];portConstraint=eastwest;" vertex="1" parent="bbEcF8RNUJCvAYnIecTd-20">
          <mxGeometry y="156" width="550" height="26" as="geometry" />
        </mxCell>
        <mxCell id="bbEcF8RNUJCvAYnIecTd-27" value="+ listAll(): List&lt;Passageira&gt;" style="text;align=left;verticalAlign=top;spacingLeft=4;spacingRight=4;overflow=hidden;rotatable=0;points=[[0,0.5],[1,0.5]];portConstraint=eastwest;" vertex="1" parent="bbEcF8RNUJCvAYnIecTd-20">
          <mxGeometry y="182" width="550" height="26" as="geometry" />
        </mxCell>
        <mxCell id="bbEcF8RNUJCvAYnIecTd-30" value="Rota" style="swimlane;fontStyle=0;align=center;verticalAlign=top;childLayout=stackLayout;horizontal=1;startSize=26;horizontalStack=0;resizeParent=1;resizeLast=0;collapsible=1;marginBottom=0;rounded=0;shadow=0;strokeWidth=1;" vertex="1" parent="WIyWlLk6GJQsqaUBKTNV-1">
          <mxGeometry x="230" y="770" width="160" height="138" as="geometry">
            <mxRectangle x="340" y="380" width="170" height="26" as="alternateBounds" />
          </mxGeometry>
        </mxCell>
        <mxCell id="bbEcF8RNUJCvAYnIecTd-31" value="- Opção: string" style="text;align=left;verticalAlign=top;spacingLeft=4;spacingRight=4;overflow=hidden;rotatable=0;points=[[0,0.5],[1,0.5]];portConstraint=eastwest;" vertex="1" parent="bbEcF8RNUJCvAYnIecTd-30">
          <mxGeometry y="26" width="160" height="26" as="geometry" />
        </mxCell>
        <mxCell id="bbEcF8RNUJCvAYnIecTd-32" value="- Distancia: float" style="text;align=left;verticalAlign=top;spacingLeft=4;spacingRight=4;overflow=hidden;rotatable=0;points=[[0,0.5],[1,0.5]];portConstraint=eastwest;" vertex="1" parent="bbEcF8RNUJCvAYnIecTd-30">
          <mxGeometry y="52" width="160" height="26" as="geometry" />
        </mxCell>
        <mxCell id="bbEcF8RNUJCvAYnIecTd-33" value="- TempoEstimado: float" style="text;align=left;verticalAlign=top;spacingLeft=4;spacingRight=4;overflow=hidden;rotatable=0;points=[[0,0.5],[1,0.5]];portConstraint=eastwest;" vertex="1" parent="bbEcF8RNUJCvAYnIecTd-30">
          <mxGeometry y="78" width="160" height="26" as="geometry" />
        </mxCell>
        <mxCell id="bbEcF8RNUJCvAYnIecTd-34" value="" style="line;html=1;strokeWidth=1;align=left;verticalAlign=middle;spacingTop=-1;spacingLeft=3;spacingRight=3;rotatable=0;labelPosition=right;points=[];portConstraint=eastwest;" vertex="1" parent="bbEcF8RNUJCvAYnIecTd-30">
          <mxGeometry y="104" width="160" height="8" as="geometry" />
        </mxCell>
        <mxCell id="bbEcF8RNUJCvAYnIecTd-35" value="+ CalcularRota(): float" style="text;align=left;verticalAlign=top;spacingLeft=4;spacingRight=4;overflow=hidden;rotatable=0;points=[[0,0.5],[1,0.5]];portConstraint=eastwest;" vertex="1" parent="bbEcF8RNUJCvAYnIecTd-30">
          <mxGeometry y="112" width="160" height="26" as="geometry" />
        </mxCell>
        <mxCell id="bbEcF8RNUJCvAYnIecTd-36" value="Motorista" style="swimlane;fontStyle=0;align=center;verticalAlign=top;childLayout=stackLayout;horizontal=1;startSize=26;horizontalStack=0;resizeParent=1;resizeLast=0;collapsible=1;marginBottom=0;rounded=0;shadow=0;strokeWidth=1;" vertex="1" parent="WIyWlLk6GJQsqaUBKTNV-1">
          <mxGeometry x="790" y="-100" width="540" height="372" as="geometry">
            <mxRectangle x="550" y="140" width="160" height="26" as="alternateBounds" />
          </mxGeometry>
        </mxCell>
        <mxCell id="bbEcF8RNUJCvAYnIecTd-37" value="- Nome: String" style="text;align=left;verticalAlign=top;spacingLeft=4;spacingRight=4;overflow=hidden;rotatable=0;points=[[0,0.5],[1,0.5]];portConstraint=eastwest;" vertex="1" parent="bbEcF8RNUJCvAYnIecTd-36">
          <mxGeometry y="26" width="540" height="26" as="geometry" />
        </mxCell>
        <mxCell id="bbEcF8RNUJCvAYnIecTd-38" value="- Sexo: String" style="text;align=left;verticalAlign=top;spacingLeft=4;spacingRight=4;overflow=hidden;rotatable=0;points=[[0,0.5],[1,0.5]];portConstraint=eastwest;rounded=0;shadow=0;html=0;" vertex="1" parent="bbEcF8RNUJCvAYnIecTd-36">
          <mxGeometry y="52" width="540" height="26" as="geometry" />
        </mxCell>
        <mxCell id="bbEcF8RNUJCvAYnIecTd-39" value="- Telefone: int" style="text;align=left;verticalAlign=top;spacingLeft=4;spacingRight=4;overflow=hidden;rotatable=0;points=[[0,0.5],[1,0.5]];portConstraint=eastwest;rounded=0;shadow=0;html=0;" vertex="1" parent="bbEcF8RNUJCvAYnIecTd-36">
          <mxGeometry y="78" width="540" height="26" as="geometry" />
        </mxCell>
        <mxCell id="bbEcF8RNUJCvAYnIecTd-40" value="- Veiculo: String" style="text;align=left;verticalAlign=top;spacingLeft=4;spacingRight=4;overflow=hidden;rotatable=0;points=[[0,0.5],[1,0.5]];portConstraint=eastwest;rounded=0;shadow=0;html=0;" vertex="1" parent="bbEcF8RNUJCvAYnIecTd-36">
          <mxGeometry y="104" width="540" height="26" as="geometry" />
        </mxCell>
        <mxCell id="bbEcF8RNUJCvAYnIecTd-41" value="- Nota: float" style="text;align=left;verticalAlign=top;spacingLeft=4;spacingRight=4;overflow=hidden;rotatable=0;points=[[0,0.5],[1,0.5]];portConstraint=eastwest;rounded=0;shadow=0;html=0;" vertex="1" parent="bbEcF8RNUJCvAYnIecTd-36">
          <mxGeometry y="130" width="540" height="26" as="geometry" />
        </mxCell>
        <mxCell id="bbEcF8RNUJCvAYnIecTd-42" value="" style="line;html=1;strokeWidth=1;align=left;verticalAlign=middle;spacingTop=-1;spacingLeft=3;spacingRight=3;rotatable=0;labelPosition=right;points=[];portConstraint=eastwest;" vertex="1" parent="bbEcF8RNUJCvAYnIecTd-36">
          <mxGeometry y="156" width="540" height="8" as="geometry" />
        </mxCell>
        <mxCell id="bbEcF8RNUJCvAYnIecTd-43" value="+ Motorista(Nome: String, Telefone: int, Sexo: String, Nota: float, CPF: int, Veiculo: String)" style="text;align=left;verticalAlign=top;spacingLeft=4;spacingRight=4;overflow=hidden;rotatable=0;points=[[0,0.5],[1,0.5]];portConstraint=eastwest;" vertex="1" parent="bbEcF8RNUJCvAYnIecTd-36">
          <mxGeometry y="164" width="540" height="26" as="geometry" />
        </mxCell>
        <mxCell id="bbEcF8RNUJCvAYnIecTd-44" value="+ AceitarCorrida(): boolean" style="text;align=left;verticalAlign=top;spacingLeft=4;spacingRight=4;overflow=hidden;rotatable=0;points=[[0,0.5],[1,0.5]];portConstraint=eastwest;" vertex="1" parent="bbEcF8RNUJCvAYnIecTd-36">
          <mxGeometry y="190" width="540" height="26" as="geometry" />
        </mxCell>
        <mxCell id="bbEcF8RNUJCvAYnIecTd-45" value="+ FinalizarCorrida(): void" style="text;align=left;verticalAlign=top;spacingLeft=4;spacingRight=4;overflow=hidden;rotatable=0;points=[[0,0.5],[1,0.5]];portConstraint=eastwest;" vertex="1" parent="bbEcF8RNUJCvAYnIecTd-36">
          <mxGeometry y="216" width="540" height="26" as="geometry" />
        </mxCell>
        <mxCell id="bbEcF8RNUJCvAYnIecTd-46" value="+ create(motorista: Motorista): void" style="text;align=left;verticalAlign=top;spacingLeft=4;spacingRight=4;overflow=hidden;rotatable=0;points=[[0,0.5],[1,0.5]];portConstraint=eastwest;" vertex="1" parent="bbEcF8RNUJCvAYnIecTd-36">
          <mxGeometry y="242" width="540" height="26" as="geometry" />
        </mxCell>
        <mxCell id="bbEcF8RNUJCvAYnIecTd-47" value="+ read(id: int): Motorista" style="text;align=left;verticalAlign=top;spacingLeft=4;spacingRight=4;overflow=hidden;rotatable=0;points=[[0,0.5],[1,0.5]];portConstraint=eastwest;" vertex="1" parent="bbEcF8RNUJCvAYnIecTd-36">
          <mxGeometry y="268" width="540" height="26" as="geometry" />
        </mxCell>
        <mxCell id="bbEcF8RNUJCvAYnIecTd-48" value="+ update(motorista: Motorista): void" style="text;align=left;verticalAlign=top;spacingLeft=4;spacingRight=4;overflow=hidden;rotatable=0;points=[[0,0.5],[1,0.5]];portConstraint=eastwest;" vertex="1" parent="bbEcF8RNUJCvAYnIecTd-36">
          <mxGeometry y="294" width="540" height="26" as="geometry" />
        </mxCell>
        <mxCell id="bbEcF8RNUJCvAYnIecTd-49" value="+ delete(id: int): void" style="text;align=left;verticalAlign=top;spacingLeft=4;spacingRight=4;overflow=hidden;rotatable=0;points=[[0,0.5],[1,0.5]];portConstraint=eastwest;" vertex="1" parent="bbEcF8RNUJCvAYnIecTd-36">
          <mxGeometry y="320" width="540" height="26" as="geometry" />
        </mxCell>
        <mxCell id="bbEcF8RNUJCvAYnIecTd-50" value="+ listAll(): List&lt;Motorista&gt;" style="text;align=left;verticalAlign=top;spacingLeft=4;spacingRight=4;overflow=hidden;rotatable=0;points=[[0,0.5],[1,0.5]];portConstraint=eastwest;" vertex="1" parent="bbEcF8RNUJCvAYnIecTd-36">
          <mxGeometry y="346" width="540" height="26" as="geometry" />
        </mxCell>
        <mxCell id="bbEcF8RNUJCvAYnIecTd-51" value="Corrida" style="swimlane;fontStyle=2;align=center;verticalAlign=top;childLayout=stackLayout;horizontal=1;startSize=26;horizontalStack=0;resizeParent=1;resizeLast=0;collapsible=1;marginBottom=0;rounded=0;shadow=0;strokeWidth=1;" vertex="1" parent="WIyWlLk6GJQsqaUBKTNV-1">
          <mxGeometry x="450" y="390" width="660" height="476" as="geometry">
            <mxRectangle x="230" y="140" width="160" height="26" as="alternateBounds" />
          </mxGeometry>
        </mxCell>
        <mxCell id="bbEcF8RNUJCvAYnIecTd-52" value="- ID: int" style="text;align=left;verticalAlign=top;spacingLeft=4;spacingRight=4;overflow=hidden;rotatable=0;points=[[0,0.5],[1,0.5]];portConstraint=eastwest;" vertex="1" parent="bbEcF8RNUJCvAYnIecTd-51">
          <mxGeometry y="26" width="660" height="26" as="geometry" />
        </mxCell>
        <mxCell id="bbEcF8RNUJCvAYnIecTd-53" value="- Origem: String" style="text;align=left;verticalAlign=top;spacingLeft=4;spacingRight=4;overflow=hidden;rotatable=0;points=[[0,0.5],[1,0.5]];portConstraint=eastwest;rounded=0;shadow=0;html=0;" vertex="1" parent="bbEcF8RNUJCvAYnIecTd-51">
          <mxGeometry y="52" width="660" height="26" as="geometry" />
        </mxCell>
        <mxCell id="bbEcF8RNUJCvAYnIecTd-54" value="- Destino: String" style="text;align=left;verticalAlign=top;spacingLeft=4;spacingRight=4;overflow=hidden;rotatable=0;points=[[0,0.5],[1,0.5]];portConstraint=eastwest;rounded=0;shadow=0;html=0;" vertex="1" parent="bbEcF8RNUJCvAYnIecTd-51">
          <mxGeometry y="78" width="660" height="26" as="geometry" />
        </mxCell>
        <mxCell id="bbEcF8RNUJCvAYnIecTd-55" value="- RotaEscolhida: String" style="text;align=left;verticalAlign=top;spacingLeft=4;spacingRight=4;overflow=hidden;rotatable=0;points=[[0,0.5],[1,0.5]];portConstraint=eastwest;" vertex="1" parent="bbEcF8RNUJCvAYnIecTd-51">
          <mxGeometry y="104" width="660" height="26" as="geometry" />
        </mxCell>
        <mxCell id="bbEcF8RNUJCvAYnIecTd-56" value="- Valor: float" style="text;align=left;verticalAlign=top;spacingLeft=4;spacingRight=4;overflow=hidden;rotatable=0;points=[[0,0.5],[1,0.5]];portConstraint=eastwest;" vertex="1" parent="bbEcF8RNUJCvAYnIecTd-51">
          <mxGeometry y="130" width="660" height="26" as="geometry" />
        </mxCell>
        <mxCell id="bbEcF8RNUJCvAYnIecTd-57" value="- Status: String" style="text;align=left;verticalAlign=top;spacingLeft=4;spacingRight=4;overflow=hidden;rotatable=0;points=[[0,0.5],[1,0.5]];portConstraint=eastwest;" vertex="1" parent="bbEcF8RNUJCvAYnIecTd-51">
          <mxGeometry y="156" width="660" height="26" as="geometry" />
        </mxCell>
        <mxCell id="bbEcF8RNUJCvAYnIecTd-58" value="- TipoCorrida: String" style="text;align=left;verticalAlign=top;spacingLeft=4;spacingRight=4;overflow=hidden;rotatable=0;points=[[0,0.5],[1,0.5]];portConstraint=eastwest;" vertex="1" parent="bbEcF8RNUJCvAYnIecTd-51">
          <mxGeometry y="182" width="660" height="26" as="geometry" />
        </mxCell>
        <mxCell id="bbEcF8RNUJCvAYnIecTd-82" value="- Opção: string" style="text;align=left;verticalAlign=top;spacingLeft=4;spacingRight=4;overflow=hidden;rotatable=0;points=[[0,0.5],[1,0.5]];portConstraint=eastwest;" vertex="1" parent="bbEcF8RNUJCvAYnIecTd-51">
          <mxGeometry y="208" width="660" height="26" as="geometry" />
        </mxCell>
        <mxCell id="bbEcF8RNUJCvAYnIecTd-59" value="" style="line;html=1;strokeWidth=1;align=left;verticalAlign=middle;spacingTop=-1;spacingLeft=3;spacingRight=3;rotatable=0;labelPosition=right;points=[];portConstraint=eastwest;" vertex="1" parent="bbEcF8RNUJCvAYnIecTd-51">
          <mxGeometry y="234" width="660" height="8" as="geometry" />
        </mxCell>
        <mxCell id="bbEcF8RNUJCvAYnIecTd-60" value="+ Corrida(ID: int, Origem: String, Destino: String, RotaEscolhida: String, Valor: float, Status: String, TipoCorrida: String)" style="text;align=left;verticalAlign=top;spacingLeft=4;spacingRight=4;overflow=hidden;rotatable=0;points=[[0,0.5],[1,0.5]];portConstraint=eastwest;" vertex="1" parent="bbEcF8RNUJCvAYnIecTd-51">
          <mxGeometry y="242" width="660" height="26" as="geometry" />
        </mxCell>
        <mxCell id="bbEcF8RNUJCvAYnIecTd-61" value="+ Iniciar(): void" style="text;align=left;verticalAlign=top;spacingLeft=4;spacingRight=4;overflow=hidden;rotatable=0;points=[[0,0.5],[1,0.5]];portConstraint=eastwest;" vertex="1" parent="bbEcF8RNUJCvAYnIecTd-51">
          <mxGeometry y="268" width="660" height="26" as="geometry" />
        </mxCell>
        <mxCell id="bbEcF8RNUJCvAYnIecTd-62" value="+ Cancelar(): void" style="text;align=left;verticalAlign=top;spacingLeft=4;spacingRight=4;overflow=hidden;rotatable=0;points=[[0,0.5],[1,0.5]];portConstraint=eastwest;" vertex="1" parent="bbEcF8RNUJCvAYnIecTd-51">
          <mxGeometry y="294" width="660" height="26" as="geometry" />
        </mxCell>
        <mxCell id="bbEcF8RNUJCvAYnIecTd-63" value="+ Concluir(): boolean" style="text;align=left;verticalAlign=top;spacingLeft=4;spacingRight=4;overflow=hidden;rotatable=0;points=[[0,0.5],[1,0.5]];portConstraint=eastwest;" vertex="1" parent="bbEcF8RNUJCvAYnIecTd-51">
          <mxGeometry y="320" width="660" height="26" as="geometry" />
        </mxCell>
        <mxCell id="bbEcF8RNUJCvAYnIecTd-64" value="+ create(corrida: Corrida): void" style="text;align=left;verticalAlign=top;spacingLeft=4;spacingRight=4;overflow=hidden;rotatable=0;points=[[0,0.5],[1,0.5]];portConstraint=eastwest;" vertex="1" parent="bbEcF8RNUJCvAYnIecTd-51">
          <mxGeometry y="346" width="660" height="26" as="geometry" />
        </mxCell>
        <mxCell id="bbEcF8RNUJCvAYnIecTd-65" value="+ read(id: int): Corrida" style="text;align=left;verticalAlign=top;spacingLeft=4;spacingRight=4;overflow=hidden;rotatable=0;points=[[0,0.5],[1,0.5]];portConstraint=eastwest;" vertex="1" parent="bbEcF8RNUJCvAYnIecTd-51">
          <mxGeometry y="372" width="660" height="26" as="geometry" />
        </mxCell>
        <mxCell id="bbEcF8RNUJCvAYnIecTd-66" value="+ update(corrida: Corrida): void" style="text;align=left;verticalAlign=top;spacingLeft=4;spacingRight=4;overflow=hidden;rotatable=0;points=[[0,0.5],[1,0.5]];portConstraint=eastwest;" vertex="1" parent="bbEcF8RNUJCvAYnIecTd-51">
          <mxGeometry y="398" width="660" height="26" as="geometry" />
        </mxCell>
        <mxCell id="bbEcF8RNUJCvAYnIecTd-67" value="+ delete(id: int): void" style="text;align=left;verticalAlign=top;spacingLeft=4;spacingRight=4;overflow=hidden;rotatable=0;points=[[0,0.5],[1,0.5]];portConstraint=eastwest;" vertex="1" parent="bbEcF8RNUJCvAYnIecTd-51">
          <mxGeometry y="424" width="660" height="26" as="geometry" />
        </mxCell>
        <mxCell id="bbEcF8RNUJCvAYnIecTd-68" value="+ listAll(): List&lt;Corrida&gt;" style="text;align=left;verticalAlign=top;spacingLeft=4;spacingRight=4;overflow=hidden;rotatable=0;points=[[0,0.5],[1,0.5]];portConstraint=eastwest;" vertex="1" parent="bbEcF8RNUJCvAYnIecTd-51">
          <mxGeometry y="450" width="660" height="26" as="geometry" />
        </mxCell>
        <mxCell id="bbEcF8RNUJCvAYnIecTd-75" style="edgeStyle=orthogonalEdgeStyle;rounded=0;orthogonalLoop=1;jettySize=auto;html=1;entryX=1;entryY=0.5;entryDx=0;entryDy=0;" edge="1" parent="WIyWlLk6GJQsqaUBKTNV-1" source="bbEcF8RNUJCvAYnIecTd-41" target="bbEcF8RNUJCvAYnIecTd-11">
          <mxGeometry relative="1" as="geometry" />
        </mxCell>
        <mxCell id="bbEcF8RNUJCvAYnIecTd-76" value="1" style="endArrow=none;html=1;endSize=12;startArrow=diamondThin;startSize=14;startFill=0;edgeStyle=orthogonalEdgeStyle;align=left;verticalAlign=bottom;rounded=0;exitX=0;exitY=0.5;exitDx=0;exitDy=0;endFill=0;entryX=1;entryY=0.75;entryDx=0;entryDy=0;" edge="1" parent="WIyWlLk6GJQsqaUBKTNV-1" target="bbEcF8RNUJCvAYnIecTd-20">
          <mxGeometry x="-1" y="3" relative="1" as="geometry">
            <mxPoint x="450" y="541" as="sourcePoint" />
            <mxPoint x="275" y="520" as="targetPoint" />
          </mxGeometry>
        </mxCell>
        <mxCell id="bbEcF8RNUJCvAYnIecTd-77" value="1" style="endArrow=none;html=1;endSize=12;startArrow=diamondThin;startSize=14;startFill=0;edgeStyle=orthogonalEdgeStyle;align=left;verticalAlign=bottom;rounded=0;" edge="1" parent="WIyWlLk6GJQsqaUBKTNV-1">
          <mxGeometry x="-1" y="3" relative="1" as="geometry">
            <mxPoint x="1110" y="450" as="sourcePoint" />
            <mxPoint x="1210" y="270" as="targetPoint" />
          </mxGeometry>
        </mxCell>
        <mxCell id="bbEcF8RNUJCvAYnIecTd-79" value="1" style="endArrow=none;html=1;endSize=12;startArrow=diamondThin;startSize=14;startFill=0;edgeStyle=orthogonalEdgeStyle;align=left;verticalAlign=bottom;rounded=0;exitX=0;exitY=0.5;exitDx=0;exitDy=0;endFill=0;entryX=0.308;entryY=0.01;entryDx=0;entryDy=0;entryPerimeter=0;" edge="1" parent="WIyWlLk6GJQsqaUBKTNV-1" target="bbEcF8RNUJCvAYnIecTd-30">
          <mxGeometry x="-1" y="3" relative="1" as="geometry">
            <mxPoint x="450" y="680" as="sourcePoint" />
            <mxPoint x="210" y="715" as="targetPoint" />
            <Array as="points">
              <mxPoint x="280" y="680" />
              <mxPoint x="280" y="715" />
            </Array>
          </mxGeometry>
        </mxCell>
      </root>
    </mxGraphModel>
  </diagram>
</mxfile>
